<svg width="17" height="18" viewBox="0 0 17 18" fill="none" xmlns="http://www.w3.org/2000/svg">
<path d="M10.3889 7.22222V13.4444M6.83333 7.22222V13.4444M3.27778 3.66667V14.1556C3.27778 15.1512 3.27778 15.6487 3.47154 16.029C3.64199 16.3635 3.91375 16.636 4.24826 16.8064C4.62818 17 5.12577 17 6.11948 17H11.1027C12.0964 17 12.5933 17 12.9732 16.8064C13.3077 16.636 13.5804 16.3635 13.7509 16.029C13.9444 15.6491 13.9444 15.152 13.9444 14.1583V3.66667M3.27778 3.66667H5.05556M3.27778 3.66667H1.5M5.05556 3.66667H12.1667M5.05556 3.66667C5.05556 2.83833 5.05556 2.42436 5.19088 2.09766C5.37131 1.66205 5.71717 1.31576 6.15278 1.13533C6.47948 1 6.89388 1 7.72222 1H9.5C10.3283 1 10.7425 1 11.0692 1.13533C11.5048 1.31576 11.8508 1.66205 12.0313 2.09766C12.1666 2.42436 12.1667 2.83833 12.1667 3.66667M12.1667 3.66667H13.9444M13.9444 3.66667H15.7222" stroke="#C14B93" stroke-width="1.4" stroke-linecap="round" stroke-linejoin="round"/>
</svg>
